# xmcd
#
# Track frame offsets: 
#        150
#        10972
#        23351
#        36964
#        47554
#        58864
#        70169
#        80379
#        91782
#        101059
#        110588
#        119975
#        132343
#        144995
#        157121
#        168475
#        180230
#        198710
#        215720
#        229705
#        249122
#        264205
#        276306
#        289187
#        313007
#
# Disc length: 4342 seconds
#
# Revision: 0
# Processed by: cddbd v1.5.2PL0 Copyright (c) Steve Scherf et al.
# Submitted via: ExactAudioCopy v1.0b3
#
DISCID=6810f419
DTITLE=T-Bone Walker - The Ultimate Collection 1929-57 - Disc 5
DYEAR=2014
DGENRE=Blues
TTITLE0=Vida Lee
TTITLE1=Bye Bye Baby
TTITLE2=Doin' Time
TTITLE3=Pony Tail
TTITLE4=When the Sun Goes Down
TTITLE5=Wanderin' Heart
TTITLE6=I'll Always Be In Love With You
TTITLE7=Strugglin' Blues
TTITLE8=Teen Age Baby
TTITLE9=Hard Way
TTITLE10=I'll Understand
TTITLE11=Papa Ain't Salty
TTITLE12=T-Bone Shuffle
TTITLE13=Why Not?
TTITLE14=Play On Little Girl
TTITLE15=T-Bone Blues Special
TTITLE16=Mean Old World
TTITLE17=T-Bone Blues
TTITLE18=Stormy Monday
TTITLE19=Blues For Marili
TTITLE20=Shufflin' the Blues
TTITLE21=Evening
TTITLE22=Two Bones and a Pick
TTITLE23=How Long Blues
TTITLE24=Blues Rock
EXTD=
EXTT0=
EXTT1=
EXTT2=
EXTT3=
EXTT4=
EXTT5=
EXTT6=
EXTT7=
EXTT8=
EXTT9=
EXTT10=
EXTT11=
EXTT12=
EXTT13=
EXTT14=
EXTT15=
EXTT16=
EXTT17=
EXTT18=
EXTT19=
EXTT20=
EXTT21=
EXTT22=
EXTT23=
EXTT24=
PLAYORDER=
